<?xml version="1.0" encoding="UTF-8" standalone="no"?>
<!DOCTYPE svg PUBLIC "-//W3C//DTD SVG 1.1//EN"
 "http://www.w3.org/Graphics/SVG/1.1/DTD/svg11.dtd">
<!-- Generated by graphviz version 2.38.0 (20140413.2041)
 -->
<!-- Title: G Pages: 1 -->
<svg width="305pt" height="461pt"
 viewBox="0.00 0.00 304.50 461.00" xmlns="http://www.w3.org/2000/svg" xmlns:xlink="http://www.w3.org/1999/xlink">
<g id="graph0" class="graph" transform="scale(1 1) rotate(0) translate(4 457)">
<title>G</title>
<polygon fill="white" stroke="none" points="-4,4 -4,-457 300.5,-457 300.5,4 -4,4"/>
<!-- N0 -->
<g id="node1" class="node"><title>N0</title>
<polygon fill="none" stroke="black" points="118,-453 59,-453 59,-417 118,-417 118,-453"/>
<text text-anchor="middle" x="88.5" y="-431.3" font-family="Times New Roman,serif" font-size="14.00">&lt;Start&gt;</text>
</g>
<!-- N1 -->
<g id="node2" class="node"><title>N1</title>
<polygon fill="none" stroke="black" points="133.5,-380 43.5,-380 43.5,-327 133.5,-327 133.5,-380"/>
<text text-anchor="start" x="51.5" y="-364.8" font-family="Times New Roman,serif" font-size="14.00">var i = 0</text>
<text text-anchor="start" x="51.5" y="-349.8" font-family="Times New Roman,serif" font-size="14.00">var result = 0</text>
<text text-anchor="start" x="51.5" y="-334.8" font-family="Times New Roman,serif" font-size="14.00">goto Label1</text>
</g>
<!-- N0&#45;&gt;N1 -->
<g id="edge1" class="edge"><title>N0&#45;&gt;N1</title>
<path fill="none" stroke="black" d="M88.5,-416.75C88.5,-408.986 88.5,-399.514 88.5,-390.325"/>
<polygon fill="black" stroke="black" points="92.0001,-390.176 88.5,-380.176 85.0001,-390.176 92.0001,-390.176"/>
</g>
<!-- N5 -->
<g id="node6" class="node"><title>N5</title>
<polygon fill="none" stroke="black" points="156.5,-290 20.5,-290 20.5,-252 156.5,-252 156.5,-290"/>
<text text-anchor="start" x="28.5" y="-274.8" font-family="Times New Roman,serif" font-size="14.00">Label1:</text>
<text text-anchor="start" x="28.5" y="-259.8" font-family="Times New Roman,serif" font-size="14.00">goto continue1 if true</text>
</g>
<!-- N1&#45;&gt;N5 -->
<g id="edge2" class="edge"><title>N1&#45;&gt;N5</title>
<path fill="none" stroke="black" d="M88.5,-326.586C88.5,-318.313 88.5,-309.11 88.5,-300.654"/>
<polygon fill="black" stroke="black" points="92.0001,-300.468 88.5,-290.468 85.0001,-300.468 92.0001,-300.468"/>
</g>
<!-- N2 -->
<g id="node3" class="node"><title>N2</title>
<polygon fill="none" stroke="black" points="243,-215 84,-215 84,-177 243,-177 243,-215"/>
<text text-anchor="start" x="92" y="-199.8" font-family="Times New Roman,serif" font-size="14.00">continue1:</text>
<text text-anchor="start" x="92" y="-184.8" font-family="Times New Roman,serif" font-size="14.00">goto Label2 unless i == n</text>
</g>
<!-- N3 -->
<g id="node4" class="node"><title>N3</title>
<polygon fill="none" stroke="black" points="212,-117.5 129,-117.5 129,-81.5 212,-81.5 212,-117.5"/>
<text text-anchor="start" x="137" y="-95.8" font-family="Times New Roman,serif" font-size="14.00">return result</text>
</g>
<!-- N2&#45;&gt;N3 -->
<g id="edge4" class="edge"><title>N2&#45;&gt;N3</title>
<path fill="none" stroke="black" d="M164.85,-176.779C165.876,-162.922 167.306,-143.625 168.47,-127.908"/>
<polygon fill="black" stroke="black" points="171.977,-127.94 169.225,-117.709 164.996,-127.423 171.977,-127.94"/>
<text text-anchor="middle" x="184.5" y="-147.8" font-family="Times New Roman,serif" font-size="14.00">i == n</text>
</g>
<!-- N4 -->
<g id="node5" class="node"><title>N4</title>
<polygon fill="none" stroke="black" points="111,-126 0,-126 0,-73 111,-73 111,-126"/>
<text text-anchor="start" x="8" y="-110.8" font-family="Times New Roman,serif" font-size="14.00">Label2:</text>
<text text-anchor="start" x="8" y="-95.8" font-family="Times New Roman,serif" font-size="14.00">result = result + i</text>
<text text-anchor="start" x="8" y="-80.8" font-family="Times New Roman,serif" font-size="14.00">i = i + 1</text>
</g>
<!-- N2&#45;&gt;N4 -->
<g id="edge3" class="edge"><title>N2&#45;&gt;N4</title>
<path fill="none" stroke="black" d="M137.265,-176.822C129.739,-171.317 121.641,-165.105 114.5,-159 105.164,-151.018 95.5105,-141.873 86.784,-133.222"/>
<polygon fill="black" stroke="black" points="89.2356,-130.724 79.6991,-126.108 84.2757,-135.663 89.2356,-130.724"/>
<text text-anchor="middle" x="138.5" y="-147.8" font-family="Times New Roman,serif" font-size="14.00">!(i == n)</text>
</g>
<!-- N7 -->
<g id="node8" class="node"><title>N7</title>
<polygon fill="none" stroke="black" points="261.5,-36 205.5,-36 205.5,-0 261.5,-0 261.5,-36"/>
<text text-anchor="middle" x="233.5" y="-14.3" font-family="Times New Roman,serif" font-size="14.00">&lt;End&gt;</text>
</g>
<!-- N3&#45;&gt;N7 -->
<g id="edge5" class="edge"><title>N3&#45;&gt;N7</title>
<path fill="none" stroke="black" d="M184.17,-81.2497C192.756,-70.4151 203.977,-56.2554 213.547,-44.1784"/>
<polygon fill="black" stroke="black" points="216.389,-46.2279 219.857,-36.2167 210.903,-41.8803 216.389,-46.2279"/>
</g>
<!-- N4&#45;&gt;N5 -->
<g id="edge6" class="edge"><title>N4&#45;&gt;N5</title>
<path fill="none" stroke="black" d="M59.1101,-126.083C62.5458,-149.364 68.1269,-184.63 74.5,-215 76.3415,-223.775 78.6428,-233.261 80.8443,-241.844"/>
<polygon fill="black" stroke="black" points="77.5214,-242.972 83.4426,-251.757 84.2927,-241.197 77.5214,-242.972"/>
</g>
<!-- N5&#45;&gt;N2 -->
<g id="edge7" class="edge"><title>N5&#45;&gt;N2</title>
<path fill="none" stroke="black" d="M107.039,-251.955C116.234,-243.005 127.493,-232.047 137.531,-222.277"/>
<polygon fill="black" stroke="black" points="140.189,-224.573 144.914,-215.09 135.307,-219.557 140.189,-224.573"/>
</g>
<!-- N6 -->
<g id="node7" class="node"><title>N6</title>
<polygon fill="none" stroke="black" points="296.5,-118.5 230.5,-118.5 230.5,-80.5 296.5,-80.5 296.5,-118.5"/>
<text text-anchor="start" x="238.5" y="-103.3" font-family="Times New Roman,serif" font-size="14.00">break1:</text>
<text text-anchor="start" x="238.5" y="-88.3" font-family="Times New Roman,serif" font-size="14.00">var z = 0</text>
</g>
<!-- N6&#45;&gt;N7 -->
<g id="edge8" class="edge"><title>N6&#45;&gt;N7</title>
<path fill="none" stroke="black" d="M256.693,-80.4602C252.815,-70.1847 247.884,-57.1171 243.566,-45.6757"/>
<polygon fill="black" stroke="black" points="246.777,-44.2712 239.972,-36.1509 240.228,-46.7427 246.777,-44.2712"/>
</g>
</g>
</svg>
